# xmcd
#
# Track frame offsets:
#       150
#       10060
#       21027
#       33422
#       47039
#       60084
#       74552
#       82809
#       92205
#       102423
#       113250
#       129423
#       141075
#       151356
#       166341
#       182523
#       194986
#       207150
#
# Disc length: 2928 seconds
#
# Revision: 1
# Processed by: cddbd v1.5.2PL0 Copyright (c) Steve Scherf et al.
# Submitted via: FreeDbEdit v0.1
#
DISCID=e70b6e12
DTITLE=Hank Snow - The Singing Ranger, Volume 3 [CD11)
DYEAR=1900
DGENRE=Hawaiian
TTITLE0=Hula Love
TTITLE1=Cry My Guitar, Cry On
TTITLE2=Beyond the Reef
TTITLE3=To You My Sweetheart, Aloha
TTITLE4=Oahu Rose
TTITLE5=Blue for Old Hawaii
TTITLE6=Don't Sing Aloha When I Go
TTITLE7=Hawaiian Cowboy
TTITLE8=My Little Grass Shack in Kealakekua, Hawaii
TTITLE9=On the Beach in Waikiki
TTITLE10=Tradewinds
TTITLE11=Hawaiian Sunset (Inst)
TTITLE12=Pearly Shells
TTITLE13=On That Old Hawaiian Shore With You
TTITLE14=Now Is the Hour
TTITLE15=Tears in the Tradewinds
TTITLE16=King's Serenade (Inst)
TTITLE17=The Whispering Tradewinds (Inst)
EXTD=
EXTT0=
EXTT1=
EXTT2=
EXTT3=
EXTT4=
EXTT5=
EXTT6=
EXTT7=
EXTT8=
EXTT9=
EXTT10=
EXTT11=
EXTT12=
EXTT13=
EXTT14=
EXTT15=
EXTT16=
EXTT17=
PLAYORDER=
